<svg id="b6cc18f7-dd87-4c5d-b04b-d277d6b0ccb7" data-name="Ebene 1" xmlns="http://www.w3.org/2000/svg" width="25" height="25" viewBox="0 0 25 25"><title>add-responsive-3</title><path d="M7.55,12.45h3.7l-3.4,3.4H4.15a.94.94,0,0,0-1,1v4a.94.94,0,0,0,1,1h4a.94.94,0,0,0,1-1v-4s0-.05,0-.09l3.21-3.21v3.7h1.5V11H7.55Z"/><path d="M19.05,3.15h-10A2.8,2.8,0,0,0,6.25,6v3.6h1.6V6a1.22,1.22,0,0,1,1.2-1.2h10A1.22,1.22,0,0,1,20.25,6V16a1.22,1.22,0,0,1-1.2,1.2h-3.2v1.6h3.2a2.86,2.86,0,0,0,2.8-2.8V6A2.8,2.8,0,0,0,19.05,3.15Z"/></svg>