<svg id="bfd78b6c-6f72-4379-a79f-8bebf252430f" data-name="Ebene 1" xmlns="http://www.w3.org/2000/svg" width="25" height="25" viewBox="0 0 25 25"><title>add-responsive-4</title><path d="M16,9.12v3.7h1.5V6.52H11.2V8h3.7l-2.75,2.75A2,2,0,0,0,11,10.4H5a2,2,0,0,0-2,2v9a2,2,0,0,0,2,2h6a2,2,0,0,0,2-2v-9a1,1,0,0,0,0-.25ZM11.5,21.4a.47.47,0,0,1-.5.5H5a.47.47,0,0,1-.5-.5v-9a.47.47,0,0,1,.5-.5h6a.47.47,0,0,1,.5.5Z"/><path d="M19.2,1.6H9.2A2.8,2.8,0,0,0,6.4,4.4V8H8V4.4A1.22,1.22,0,0,1,9.2,3.2h10a1.22,1.22,0,0,1,1.2,1.2v10a1.22,1.22,0,0,1-1.2,1.2H16v1.6h3.2A2.86,2.86,0,0,0,22,14.4V4.4A2.8,2.8,0,0,0,19.2,1.6Z"/><rect x="7" y="19.4" width="2" height="1.5"/></svg>