<svg id="b874fadd-f0ee-4a8d-a2ee-a5a41fd72ee1" data-name="Ebene 1" xmlns="http://www.w3.org/2000/svg" width="25" height="25" viewBox="0 0 25 25"><title>add-responsive-8</title><rect x="11.5" y="16.5" width="2" height="1.5"/><path d="M19.7,9.5l-1,1,1.2,1.2H17.5V6.5a2,2,0,0,0-2-2h-6a2,2,0,0,0-2,2v5.2H5.1l1.2-1.2-1-1-3,3,3,3,1-1L5.1,13.3H7.5v5.2a2,2,0,0,0,2,2h6a2,2,0,0,0,2-2V13.3h2.4l-1.2,1.2,1,1,3-3Zm-3.7,9a.47.47,0,0,1-.5.5h-6a.47.47,0,0,1-.5-.5V6.5A.47.47,0,0,1,9.5,6h6a.47.47,0,0,1,.5.5Z"/></svg>