<svg id="b7ee7afa-fc02-4422-8d2b-2250ddc1011b" data-name="Ebene 1" xmlns="http://www.w3.org/2000/svg" width="25" height="25" viewBox="0 0 25 25"><title>add-responsive-10_1</title><path d="M20,6.5h1.5a2,2,0,0,0-2-2V6A.47.47,0,0,1,20,6.5Z"/><rect x="16.5" y="4.5" width="1.5" height="1.5"/><rect x="20" y="15" width="1.5" height="2"/><rect x="20" y="8" width="1.5" height="2"/><rect x="20" y="11.5" width="1.5" height="2"/><path d="M19.5,19v1.5a2,2,0,0,0,2-2H20A.47.47,0,0,1,19.5,19Z"/><rect x="16.5" y="19" width="1.5" height="1.5"/><rect x="13.48" y="4.5" width="1.5" height="1.5"/><rect x="13.48" y="19" width="1.5" height="1.5"/><polygon points="15.2 9 14.2 10 15.9 11.7 8.2 11.7 8.2 13.2 15.9 13.2 14.2 15 15.3 16.1 18.3 13.1 18.8 12.6 18.2 12 15.2 9"/><rect x="6.85" y="16.5" width="2" height="1.5"/><path d="M10.7,18.5a.47.47,0,0,1-.5.5H5.5a.47.47,0,0,1-.5-.5V6.5A.47.47,0,0,1,5.5,6h4.7a.47.47,0,0,1,.5.5V9h1.5V6.5a2,2,0,0,0-2-2H5.5a2,2,0,0,0-2,2v12a2,2,0,0,0,2,2h4.7a2,2,0,0,0,2-2V16H10.7Z"/></svg>