<svg id="a4bdc2ac-ca6c-42fd-8146-cf645fab7c05" data-name="Ebene 1" xmlns="http://www.w3.org/2000/svg" width="25" height="25" viewBox="0 0 25 25"><title>add-responsive-7</title><polygon points="12.2 2.5 11.82 2.5 11.45 2.5 11.07 2.5 10.7 2.5 10.7 9.02 12.2 9.02 12.2 2.5"/><path d="M5,18.5V6.5A.47.47,0,0,1,5.5,6h3V4.5h-3a2,2,0,0,0-2,2v12a2,2,0,0,0,2,2h3V19h-3A.47.47,0,0,1,5,18.5Z"/><polygon points="10.7 22.5 11.07 22.5 11.45 22.5 11.82 22.5 12.2 22.5 12.2 15.98 10.7 15.98 10.7 22.5"/><path d="M20,6.5h1.5a2,2,0,0,0-2-2V6A.47.47,0,0,1,20,6.5Z"/><rect x="16.5" y="4.5" width="1.5" height="1.5"/><rect x="20" y="15" width="1.5" height="2"/><rect x="20" y="8" width="1.5" height="2"/><rect x="20" y="11.5" width="1.5" height="2"/><path d="M19.5,19v1.5a2,2,0,0,0,2-2H20A.47.47,0,0,1,19.5,19Z"/><rect x="16.5" y="19" width="1.5" height="1.5"/><polygon points="15.2 9 14.2 10 15.9 11.7 8.2 11.7 8.2 13.2 15.9 13.2 14.2 15 15.3 16.1 18.3 13.1 18.8 12.6 18.2 12 15.2 9"/></svg>