<svg id="a303cbb7-fec5-4ce2-a6a4-1898b9cbc942" data-name="Ebene 1" xmlns="http://www.w3.org/2000/svg" width="25" height="25" viewBox="0 0 25 25"><title>add-responsive-6</title><path d="M21,16.75h-.7v-8a2,2,0,0,0-2-2H6.7a2,2,0,0,0-2,2v8H4a1.54,1.54,0,0,0-1.5,1.5h20A1.54,1.54,0,0,0,21,16.75Zm-2.2-.4H6.2V8.75a.47.47,0,0,1,.5-.5H18.3a.47.47,0,0,1,.5.5Z"/><polygon points="7.7 13.25 9.2 13.25 9.2 11.25 11.2 11.25 11.2 9.75 7.7 9.75 7.7 13.25"/><polygon points="15.8 13.35 13.8 13.35 13.8 14.85 17.3 14.85 17.3 11.35 15.8 11.35 15.8 13.35"/></svg>