<svg id="b43c649d-8194-4e47-a4b9-3c4e0dd24496" data-name="Ebene 1" xmlns="http://www.w3.org/2000/svg" width="25" height="25" viewBox="0 0 25 25"><title>add-responsive-5</title><path d="M19.7,2.6H9.7A2.8,2.8,0,0,0,6.9,5.4V9H8.5V5.4A1.22,1.22,0,0,1,9.7,4.2h10a1.22,1.22,0,0,1,1.2,1.2v10a1.22,1.22,0,0,1-1.2,1.2H16.5v1.6h3.2a2.86,2.86,0,0,0,2.8-2.8V5.4A2.8,2.8,0,0,0,19.7,2.6Z"/><path d="M16.5,10.12v3.7H18V7.52H11.7V9h3.7l-2.75,2.75a2,2,0,0,0-1.15-.37h-7a2,2,0,0,0-2,2v7a2,2,0,0,0,2,2h7a2,2,0,0,0,2-2v-7a1,1,0,0,0,0-.25ZM12,20.4a.47.47,0,0,1-.5.5h-7a.47.47,0,0,1-.5-.5v-7a.47.47,0,0,1,.5-.5h7a.47.47,0,0,1,.5.5Z"/><rect x="7" y="18.4" width="2" height="1.5"/></svg>