<svg id="eaa71e6d-4bdc-4bfb-8540-729b47c10242" data-name="Ebene 1" xmlns="http://www.w3.org/2000/svg" width="25" height="25" viewBox="0 0 25 25"><title>add-responsive-1</title><path d="M8.15,18.85h2v-2h2v-2h-2v-2h-2v2h-2v2h2Zm1,4a7,7,0,1,0-7-7A7,7,0,0,0,9.15,22.85Zm0-12a5,5,0,0,1,0,10,5,5,0,0,1,0-10Z"/><path d="M20.35,5.15h1.5a2,2,0,0,0-2-2v1.5A.47.47,0,0,1,20.35,5.15Z"/><rect x="20.35" y="13.65" width="1.5" height="2"/><rect x="20.35" y="6.65" width="1.5" height="2"/><rect x="20.35" y="10.15" width="1.5" height="2"/><path d="M19.85,17.65v1.5a2,2,0,0,0,2-2h-1.5A.47.47,0,0,1,19.85,17.65Z"/><rect x="16.85" y="17.65" width="1.5" height="1.5"/><path d="M7.85,4.65V3.15a2,2,0,0,0-2,2h1.5A.47.47,0,0,1,7.85,4.65Z"/><rect x="5.85" y="6.65" width="1.5" height="1.5"/><rect x="16.35" y="3.15" width="2" height="1.5"/><rect x="9.35" y="3.15" width="2" height="1.5"/><rect x="12.85" y="3.15" width="2" height="1.5"/><path d="M20.35,5.15h1.5a2,2,0,0,0-2-2v1.5A.47.47,0,0,1,20.35,5.15Z"/><path d="M19.85,17.65v1.5a2,2,0,0,0,2-2h-1.5A.47.47,0,0,1,19.85,17.65Z"/></svg>