<svg id="f3e202ff-1ff7-44d5-8e91-4db04115ac89" data-name="Ebene 1" xmlns="http://www.w3.org/2000/svg" width="25" height="25" viewBox="0 0 25 25"><title>add-responsive-2</title><path d="M19.05,3.15h-10A2.8,2.8,0,0,0,6.25,6v1.6h1.6V6a1.22,1.22,0,0,1,1.2-1.2h10A1.22,1.22,0,0,1,20.25,6V16a1.22,1.22,0,0,1-1.2,1.2h-1.2v1.6h1.2a2.86,2.86,0,0,0,2.8-2.8V6A2.8,2.8,0,0,0,19.05,3.15Z"/><path d="M9.15,17.85h2v-2h2v-2h-2v-2h-2v2h-2v2h2Zm1,4a7,7,0,1,0-7-7A7,7,0,0,0,10.15,21.85Zm0-12a5,5,0,1,1-5,5A5,5,0,0,1,10.15,9.85Z"/></svg>