<svg xmlns="http://www.w3.org/2000/svg" width="24" height="24" viewBox="0 0 24 24"><title>edit-image</title><polygon points="10.3 12.85 6.9 17.1 12.14 17.1 12.99 16.25 10.3 12.85"/><circle cx="14.98" cy="9.03" r="1.27"/><path d="M18.8,3.5h-6V5.2h6v6h1.7V5.2A1.72,1.72,0,0,0,18.8,3.5Z"/><path d="M5.2,5.2h6V3.5H5.2A1.72,1.72,0,0,0,3.5,5.2v6H5.2Z"/><path d="M5.2,18.8v-6H3.5v6a1.72,1.72,0,0,0,1.7,1.7h6.16l.57-1.7H5.2Z"/><path d="M18.8,13.13a.67.67,0,0,0-.92-.07l-4.32,4.32-.64,3.05L16,19.79l4.32-4.32a.75.75,0,0,0,0-.92Zm-4.53,4.54,3-3.05.57.57-3,3.11Zm1.41,1.41-.56-.56,3-3,.57.57Z"/></svg>