<svg xmlns="http://www.w3.org/2000/svg" width="24" height="24" viewBox="0 0 24 24"><title>quality-2k</title><path d="M11.72,13.84a.37.37,0,0,1,.28.1.35.35,0,0,1,.1.26v.65h-4v-.36a.6.6,0,0,1,0-.22A.65.65,0,0,1,8.27,14L10,12.32q.22-.23.39-.42a4.21,4.21,0,0,0,.28-.4,2.2,2.2,0,0,0,.17-.39,1.93,1.93,0,0,0,.05-.42.77.77,0,0,0-.2-.59.73.73,0,0,0-.56-.2.85.85,0,0,0-.29,0,.92.92,0,0,0-.24.13.58.58,0,0,0-.19.19.7.7,0,0,0-.11.23.48.48,0,0,1-.19.27.63.63,0,0,1-.35,0l-.58-.11a2.08,2.08,0,0,1,.24-.74,1.62,1.62,0,0,1,.44-.53,1.73,1.73,0,0,1,.6-.32A2.48,2.48,0,0,1,10.18,9a2.18,2.18,0,0,1,.75.13,1.59,1.59,0,0,1,.58.34,1.38,1.38,0,0,1,.37.52,1.69,1.69,0,0,1,.14.68,1.82,1.82,0,0,1-.1.59,1.92,1.92,0,0,1-.25.52,2.74,2.74,0,0,1-.36.48c-.14.16-.29.31-.44.47L9.64,14l.4-.1.38,0Z"/><path d="M13.68,8.89v3.38h.19a.35.35,0,0,0,.16,0,.3.3,0,0,0,.12-.11l.91-1.21a.52.52,0,0,1,.16-.14.36.36,0,0,1,.22,0h1l-1.18,1.5a1,1,0,0,1-.32.3.75.75,0,0,1,.16.15,1.4,1.4,0,0,1,.13.18l1.27,2h-1a.51.51,0,0,1-.22,0,.36.36,0,0,1-.15-.15l-.93-1.52A.33.33,0,0,0,14.1,13a.42.42,0,0,0-.18,0h-.24v1.86h-1.1v-6Z"/></svg>