<svg xmlns="http://www.w3.org/2000/svg" width="24" height="24" viewBox="0 0 24 24"><title>quality-540p</title><path d="M5.07,11.13a2.27,2.27,0,0,1,.35-.05l.32,0a2.25,2.25,0,0,1,.81.14,1.71,1.71,0,0,1,.59.38,1.61,1.61,0,0,1,.35.56,2,2,0,0,1,.12.7,2.06,2.06,0,0,1-.16.84,1.93,1.93,0,0,1-.45.66,2.14,2.14,0,0,1-.7.42,2.25,2.25,0,0,1-.87.16,2.2,2.2,0,0,1-.53-.06,2.16,2.16,0,0,1-.47-.16A2.67,2.67,0,0,1,4,14.48a3.19,3.19,0,0,1-.33-.27L4,13.74a.37.37,0,0,1,.29-.14.42.42,0,0,1,.21.06l.23.14a1.8,1.8,0,0,0,.31.14,1.11,1.11,0,0,0,.43.07,1.06,1.06,0,0,0,.45-.09.75.75,0,0,0,.32-.23,1,1,0,0,0,.19-.36,1.56,1.56,0,0,0,.06-.44.93.93,0,0,0-.26-.7,1.06,1.06,0,0,0-.75-.25,2.33,2.33,0,0,0-.81.16L4,11.9l.48-2.85H7.41v.46a.65.65,0,0,1,0,.21.39.39,0,0,1-.11.17.54.54,0,0,1-.2.1.87.87,0,0,1-.3,0H5.26Z"/><path d="M12.15,12.64v.62a.2.2,0,0,1-.06.15.21.21,0,0,1-.16.06h-.45v1.38h-1V13.47H8.12a.33.33,0,0,1-.19-.06.23.23,0,0,1-.1-.17l-.12-.55,2.72-3.64h1.05v3.59Zm-1.63,0V10.91c0-.09,0-.19,0-.29a1.82,1.82,0,0,1,0-.32L8.88,12.64Z"/><path d="M16.48,12a4.68,4.68,0,0,1-.16,1.32,2.56,2.56,0,0,1-.46.92,1.71,1.71,0,0,1-.68.55,2,2,0,0,1-.85.18,2.06,2.06,0,0,1-.85-.18,1.75,1.75,0,0,1-.67-.55,2.73,2.73,0,0,1-.45-.92,5.53,5.53,0,0,1,0-2.64,2.73,2.73,0,0,1,.45-.92,1.75,1.75,0,0,1,.67-.55A2.06,2.06,0,0,1,14.33,9a2,2,0,0,1,.85.18,1.71,1.71,0,0,1,.68.55,2.56,2.56,0,0,1,.46.92A4.68,4.68,0,0,1,16.48,12Zm-1.14,0a5.69,5.69,0,0,0-.08-1A2.39,2.39,0,0,0,15,10.3a.82.82,0,0,0-.32-.32.86.86,0,0,0-.38-.1A.82.82,0,0,0,14,10a.8.8,0,0,0-.31.32,2.09,2.09,0,0,0-.22.63,4.82,4.82,0,0,0-.09,1,4.82,4.82,0,0,0,.09,1,1.91,1.91,0,0,0,.22.63.8.8,0,0,0,.31.32.71.71,0,0,0,.37.1.75.75,0,0,0,.38-.1A.82.82,0,0,0,15,13.6a2.15,2.15,0,0,0,.23-.63A5.69,5.69,0,0,0,15.34,12Z"/><path d="M17.84,11.27A2,2,0,0,1,18.1,11a1.57,1.57,0,0,1,.3-.2l.35-.13a1.64,1.64,0,0,1,.4,0,1.4,1.4,0,0,1,.61.14,1.31,1.31,0,0,1,.47.41,2,2,0,0,1,.32.66,3.52,3.52,0,0,1,.11.9,2.63,2.63,0,0,1-.13.86,1.93,1.93,0,0,1-.36.68,1.7,1.7,0,0,1-.55.45,1.6,1.6,0,0,1-.73.16,1.42,1.42,0,0,1-.57-.1,1.17,1.17,0,0,1-.42-.27v1.64H16.8V10.73h.68a.25.25,0,0,1,.27.19Zm.06,2.49a1,1,0,0,0,.34.26,1.23,1.23,0,0,0,.39.07A.86.86,0,0,0,19,14a.65.65,0,0,0,.28-.24,1.2,1.2,0,0,0,.19-.41,2.64,2.64,0,0,0,.06-.6,3.13,3.13,0,0,0-.05-.58,1.17,1.17,0,0,0-.16-.39.6.6,0,0,0-.23-.22.81.81,0,0,0-.31-.06,1.09,1.09,0,0,0-.5.11,1.45,1.45,0,0,0-.37.34Z"/></svg>