<svg xmlns="http://www.w3.org/2000/svg" width="24" height="24" viewBox="0 0 24 24"><title>quality-1080p</title><path d="M5.47,14v.81H2.21V14H3.37V10.65c0-.07,0-.14,0-.22l-.76.63a.37.37,0,0,1-.15.08H2.32a.31.31,0,0,1-.12-.05A.27.27,0,0,1,2.12,11l-.35-.46L3.56,9.05h.91v5Z"/><path d="M9.76,12a4.68,4.68,0,0,1-.16,1.32,2.73,2.73,0,0,1-.45.92,1.81,1.81,0,0,1-.69.55,2.07,2.07,0,0,1-1.69,0,1.71,1.71,0,0,1-.68-.55,2.73,2.73,0,0,1-.45-.92,5.52,5.52,0,0,1,0-2.64,2.73,2.73,0,0,1,.45-.92,1.71,1.71,0,0,1,.68-.55,2.07,2.07,0,0,1,1.69,0,1.81,1.81,0,0,1,.69.55,2.73,2.73,0,0,1,.45.92A4.68,4.68,0,0,1,9.76,12ZM8.62,12a5.69,5.69,0,0,0-.08-1,2.39,2.39,0,0,0-.23-.63A.82.82,0,0,0,8,10a.86.86,0,0,0-.38-.1.82.82,0,0,0-.37.1.8.8,0,0,0-.31.32,2.09,2.09,0,0,0-.22.63,4.82,4.82,0,0,0-.09,1,4.82,4.82,0,0,0,.09,1,1.91,1.91,0,0,0,.22.63.83.83,0,0,0,.31.33.81.81,0,0,0,.37.09.76.76,0,0,0,.7-.42A2.15,2.15,0,0,0,8.54,13,5.69,5.69,0,0,0,8.62,12Z"/><path d="M13.13,11.83a1.44,1.44,0,0,1,.77.53,1.47,1.47,0,0,1,.24.85,1.6,1.6,0,0,1-.15.7,1.55,1.55,0,0,1-.41.54,2.13,2.13,0,0,1-.65.35,2.93,2.93,0,0,1-1.66,0,2.13,2.13,0,0,1-.65-.35,1.68,1.68,0,0,1-.41-.54,1.6,1.6,0,0,1-.15-.7,1.47,1.47,0,0,1,.24-.85,1.44,1.44,0,0,1,.77-.53,1.32,1.32,0,0,1-.62-.51,1.52,1.52,0,0,1-.06-1.39,1.55,1.55,0,0,1,.38-.5,2.1,2.1,0,0,1,.59-.33A2.17,2.17,0,0,1,12.1,9a2.27,2.27,0,0,1,.75.12,2,2,0,0,1,.58.33,1.42,1.42,0,0,1,.38.5,1.52,1.52,0,0,1-.06,1.39A1.32,1.32,0,0,1,13.13,11.83Zm-1,2.24a1.2,1.2,0,0,0,.4-.06.82.82,0,0,0,.28-.19.88.88,0,0,0,.17-.28,1,1,0,0,0,.05-.35.93.93,0,0,0-.22-.67.88.88,0,0,0-.68-.24.88.88,0,0,0-.68.24.93.93,0,0,0-.22.67,1.34,1.34,0,0,0,.05.35.88.88,0,0,0,.17.28.92.92,0,0,0,.28.19A1.25,1.25,0,0,0,12.1,14.07Zm0-4.27a.91.91,0,0,0-.35.06.74.74,0,0,0-.24.17.89.89,0,0,0-.14.25.92.92,0,0,0,0,.29,1.66,1.66,0,0,0,0,.32.75.75,0,0,0,.13.27.68.68,0,0,0,.24.2.94.94,0,0,0,.37.07,1,1,0,0,0,.38-.07.64.64,0,0,0,.23-.2.75.75,0,0,0,.13-.27,1.66,1.66,0,0,0,0-.32.92.92,0,0,0,0-.29.89.89,0,0,0-.14-.25.74.74,0,0,0-.24-.17A.91.91,0,0,0,12.1,9.8Z"/><path d="M18.56,12a4.68,4.68,0,0,1-.16,1.32,2.56,2.56,0,0,1-.46.92,1.71,1.71,0,0,1-.68.55,2,2,0,0,1-.85.18,2.06,2.06,0,0,1-.85-.18,1.75,1.75,0,0,1-.67-.55,2.73,2.73,0,0,1-.45-.92,5.53,5.53,0,0,1,0-2.64,2.73,2.73,0,0,1,.45-.92,1.75,1.75,0,0,1,.67-.55A2.06,2.06,0,0,1,16.41,9a2,2,0,0,1,.85.18,1.71,1.71,0,0,1,.68.55,2.56,2.56,0,0,1,.46.92A4.68,4.68,0,0,1,18.56,12Zm-1.14,0a5.69,5.69,0,0,0-.08-1,2.39,2.39,0,0,0-.23-.63.82.82,0,0,0-.32-.32.86.86,0,0,0-.38-.1A.82.82,0,0,0,16,10a.8.8,0,0,0-.31.32,2.09,2.09,0,0,0-.22.63,4.82,4.82,0,0,0-.09,1,4.82,4.82,0,0,0,.09,1,1.91,1.91,0,0,0,.22.63.83.83,0,0,0,.31.33.81.81,0,0,0,.37.09.76.76,0,0,0,.7-.42,2.15,2.15,0,0,0,.23-.63A5.69,5.69,0,0,0,17.42,12Z"/><path d="M19.92,11.27a2,2,0,0,1,.26-.25,1.57,1.57,0,0,1,.3-.2l.34-.13a1.75,1.75,0,0,1,.4,0,1.34,1.34,0,0,1,.61.14,1.26,1.26,0,0,1,.48.41,1.84,1.84,0,0,1,.31.66,3.16,3.16,0,0,1,.12.9,2.93,2.93,0,0,1-.13.86,1.93,1.93,0,0,1-.36.68,1.64,1.64,0,0,1-.56.45,1.55,1.55,0,0,1-.72.16,1.35,1.35,0,0,1-.57-.1,1.17,1.17,0,0,1-.42-.27v1.64h-1.1V10.73h.68a.26.26,0,0,1,.27.19ZM20,13.76a.91.91,0,0,0,.34.26,1.23,1.23,0,0,0,.39.07.86.86,0,0,0,.36-.08.65.65,0,0,0,.28-.24,1.2,1.2,0,0,0,.19-.41,2.64,2.64,0,0,0,.06-.6,3.13,3.13,0,0,0-.05-.58,1.17,1.17,0,0,0-.16-.39.6.6,0,0,0-.23-.22.83.83,0,0,0-.32-.06,1.07,1.07,0,0,0-.49.11A1.45,1.45,0,0,0,20,12Z"/></svg>