<svg xmlns="http://www.w3.org/2000/svg" width="24" height="24" viewBox="0 0 24 24"><title>quality-medium</title><path d="M10.33,9.05v5.8H9.27v-3.8c0-.09,0-.17,0-.26L7.64,13.94a.47.47,0,0,1-.42.26H7.05a.49.49,0,0,1-.25-.07.45.45,0,0,1-.17-.19L5,10.78c0,.09,0,.18,0,.27s0,.16,0,.24v3.56H3.93V9.05H5l.1,0,.08.06a.31.31,0,0,1,.08.11l1.62,3.09c0,.1.1.19.14.29s.09.2.13.3c0-.1.08-.21.13-.31a2.59,2.59,0,0,1,.14-.29L9,9.24a.31.31,0,0,1,.08-.11l.08-.06.11,0h1.05Z"/><path d="M12.43,10v1.49h1.93v.91H12.43v1.52h2.48v.94H11.22V9.05h3.69V10Z"/><path d="M20.69,12a3.2,3.2,0,0,1-.21,1.17,2.71,2.71,0,0,1-.6.92,3,3,0,0,1-.94.6,3.4,3.4,0,0,1-1.22.21H15.49V9.05h2.23a3.4,3.4,0,0,1,1.22.21,2.88,2.88,0,0,1,.94.61,2.58,2.58,0,0,1,.6.91A3.2,3.2,0,0,1,20.69,12Zm-1.23,0a2.57,2.57,0,0,0-.12-.82,1.77,1.77,0,0,0-.34-.62,1.33,1.33,0,0,0-.55-.38,1.7,1.7,0,0,0-.73-.14h-1v3.92h1a1.86,1.86,0,0,0,.73-.13,1.45,1.45,0,0,0,.55-.39,1.69,1.69,0,0,0,.34-.62A2.62,2.62,0,0,0,19.46,12Z"/></svg>