<svg xmlns="http://www.w3.org/2000/svg" width="24" height="24" viewBox="0 0 24 24"><title>quality-360p</title><path d="M3.86,10.68a2.08,2.08,0,0,1,.24-.74,1.62,1.62,0,0,1,.44-.53,1.73,1.73,0,0,1,.6-.32A2.43,2.43,0,0,1,5.87,9a2.19,2.19,0,0,1,.75.12,1.73,1.73,0,0,1,.55.32,1.35,1.35,0,0,1,.35.48,1.44,1.44,0,0,1,.13.58,1.77,1.77,0,0,1-.06.49,1.4,1.4,0,0,1-.17.37,1.16,1.16,0,0,1-.28.26,2,2,0,0,1-.39.18,1.3,1.3,0,0,1,1,1.33,1.73,1.73,0,0,1-.16.78,1.68,1.68,0,0,1-.44.57,1.79,1.79,0,0,1-.64.34,2.48,2.48,0,0,1-.77.12,2.84,2.84,0,0,1-.75-.1,1.71,1.71,0,0,1-.57-.29A2,2,0,0,1,4,14.05a3.31,3.31,0,0,1-.31-.68l.49-.2a.58.58,0,0,1,.36,0,.33.33,0,0,1,.24.17,1.48,1.48,0,0,0,.17.28,1.1,1.1,0,0,0,.2.23A.77.77,0,0,0,5.4,14a.88.88,0,0,0,.33.05,1,1,0,0,0,.4-.07.88.88,0,0,0,.29-.2.75.75,0,0,0,.18-.28,1,1,0,0,0,.05-.3,1.94,1.94,0,0,0,0-.36.55.55,0,0,0-.17-.28,1,1,0,0,0-.38-.18,3.14,3.14,0,0,0-.69-.06V11.5A2.38,2.38,0,0,0,6,11.44a1,1,0,0,0,.37-.17A.51.51,0,0,0,6.52,11a1.14,1.14,0,0,0,.05-.33.78.78,0,0,0-.2-.58.73.73,0,0,0-.56-.2.85.85,0,0,0-.29,0,.92.92,0,0,0-.24.13.58.58,0,0,0-.19.19,1,1,0,0,0-.11.23.48.48,0,0,1-.19.27.63.63,0,0,1-.35,0Z"/><path d="M9.79,11.13l-.18.21a1.8,1.8,0,0,1,.33-.1,2.33,2.33,0,0,1,.38,0,1.9,1.9,0,0,1,.63.11,1.47,1.47,0,0,1,.55.33,1.57,1.57,0,0,1,.39.54,2.09,2.09,0,0,1,0,1.53,1.93,1.93,0,0,1-.42.63,1.87,1.87,0,0,1-.66.42,2.26,2.26,0,0,1-.85.16,2.3,2.3,0,0,1-.85-.15,1.76,1.76,0,0,1-.64-.43,1.78,1.78,0,0,1-.4-.65,2.23,2.23,0,0,1-.14-.83A2.37,2.37,0,0,1,8.08,12a3.55,3.55,0,0,1,.51-.89L9.94,9.3a.62.62,0,0,1,.23-.18.86.86,0,0,1,.36-.07h1ZM9.93,14a1,1,0,0,0,.4-.08.89.89,0,0,0,.32-.21,1,1,0,0,0,.21-.32,1,1,0,0,0,.07-.4,1.16,1.16,0,0,0-.07-.42,1,1,0,0,0-.2-.32,1.16,1.16,0,0,0-.32-.2A1.31,1.31,0,0,0,9.93,12a.92.92,0,0,0-.38.07,1,1,0,0,0-.31.21.85.85,0,0,0-.19.32A1,1,0,0,0,9,13a1.31,1.31,0,0,0,.06.41.83.83,0,0,0,.18.32.81.81,0,0,0,.3.21A1.21,1.21,0,0,0,9.93,14Z"/><path d="M16.4,12a4.72,4.72,0,0,1-.16,1.32,2.56,2.56,0,0,1-.46.92,1.71,1.71,0,0,1-.68.55,2,2,0,0,1-.85.18,2.06,2.06,0,0,1-.85-.18,1.75,1.75,0,0,1-.67-.55,2.73,2.73,0,0,1-.45-.92A5.13,5.13,0,0,1,12.12,12a5.07,5.07,0,0,1,.16-1.32,2.73,2.73,0,0,1,.45-.92,1.75,1.75,0,0,1,.67-.55A2.06,2.06,0,0,1,14.25,9a2,2,0,0,1,.85.18,1.71,1.71,0,0,1,.68.55,2.56,2.56,0,0,1,.46.92A4.68,4.68,0,0,1,16.4,12Zm-1.14,0a5.69,5.69,0,0,0-.08-1A2.26,2.26,0,0,0,15,10.3a.82.82,0,0,0-.32-.32.75.75,0,0,0-.38-.1.71.71,0,0,0-.37.1.8.8,0,0,0-.31.32,2,2,0,0,0-.22.63,4.82,4.82,0,0,0-.09,1,4.82,4.82,0,0,0,.09,1,2,2,0,0,0,.22.63.8.8,0,0,0,.31.32.71.71,0,0,0,.37.1.75.75,0,0,0,.38-.1A.82.82,0,0,0,15,13.6a2.26,2.26,0,0,0,.23-.63A5.69,5.69,0,0,0,15.26,12Z"/><path d="M17.76,11.27A2,2,0,0,1,18,11a1.57,1.57,0,0,1,.3-.2l.35-.13a1.61,1.61,0,0,1,.39,0,1.41,1.41,0,0,1,.62.14,1.31,1.31,0,0,1,.47.41,2,2,0,0,1,.32.66,3.52,3.52,0,0,1,.11.9,2.63,2.63,0,0,1-.13.86,1.93,1.93,0,0,1-.36.68,1.7,1.7,0,0,1-.55.45,1.6,1.6,0,0,1-.73.16,1.42,1.42,0,0,1-.57-.1,1.32,1.32,0,0,1-.42-.27v1.64h-1.1V10.73h.68a.25.25,0,0,1,.27.19Zm.06,2.49a1,1,0,0,0,.34.26,1.23,1.23,0,0,0,.39.07.86.86,0,0,0,.36-.08.65.65,0,0,0,.28-.24,1.2,1.2,0,0,0,.19-.41,2.64,2.64,0,0,0,.06-.6,3.13,3.13,0,0,0-.05-.58,1.17,1.17,0,0,0-.16-.39.6.6,0,0,0-.23-.22.81.81,0,0,0-.31-.06,1.09,1.09,0,0,0-.5.11,1.45,1.45,0,0,0-.37.34Z"/></svg>