<svg xmlns="http://www.w3.org/2000/svg" width="24" height="24" viewBox="0 0 24 24"><title>quality-auto</title><path d="M7.1,14.85H6.17a.44.44,0,0,1-.26-.07.45.45,0,0,1-.14-.19l-.39-1.11H3.07l-.4,1.11a.39.39,0,0,1-.14.18.39.39,0,0,1-.25.08H1.34l2.27-5.8H4.84Zm-2-2.2-.62-1.78a3,3,0,0,1-.12-.33c0-.12-.08-.26-.12-.4,0,.15-.08.28-.12.41L4,10.88l-.63,1.77Z"/><path d="M9.55,13.89a1.27,1.27,0,0,0,.52-.1,1.05,1.05,0,0,0,.39-.27,1.11,1.11,0,0,0,.24-.44,1.72,1.72,0,0,0,.09-.58V9.05H12V12.5a2.7,2.7,0,0,1-.17,1,2.2,2.2,0,0,1-.49.77,2.24,2.24,0,0,1-.76.5,3,3,0,0,1-2.05,0,2.28,2.28,0,0,1-.77-.5,2.18,2.18,0,0,1-.48-.77,2.5,2.5,0,0,1-.17-1V9.05H8.3V12.5a1.73,1.73,0,0,0,.08.58,1.26,1.26,0,0,0,.25.44.91.91,0,0,0,.39.27A1.25,1.25,0,0,0,9.55,13.89Z"/><path d="M17.08,10h-1.7v4.83h-1.2V10H12.49v-1h4.59Z"/><path d="M22.6,12a3.25,3.25,0,0,1-.21,1.18,2.8,2.8,0,0,1-.6.94,2.9,2.9,0,0,1-.94.62,3.19,3.19,0,0,1-1.22.23,3.14,3.14,0,0,1-1.21-.23,2.8,2.8,0,0,1-.94-.62,2.68,2.68,0,0,1-.61-.94A3.25,3.25,0,0,1,16.66,12a3.22,3.22,0,0,1,.21-1.18,2.68,2.68,0,0,1,.61-.94,2.8,2.8,0,0,1,.94-.62A3.14,3.14,0,0,1,19.63,9a3.19,3.19,0,0,1,1.22.23,2.9,2.9,0,0,1,.94.62,2.8,2.8,0,0,1,.6.94A3.29,3.29,0,0,1,22.6,12Zm-1.22,0a2.57,2.57,0,0,0-.12-.82,1.79,1.79,0,0,0-.35-.62,1.55,1.55,0,0,0-.55-.38,1.86,1.86,0,0,0-.73-.14,1.9,1.9,0,0,0-.73.14,1.55,1.55,0,0,0-.55.38,1.79,1.79,0,0,0-.35.62,2.57,2.57,0,0,0-.12.82,2.62,2.62,0,0,0,.12.82,1.66,1.66,0,0,0,.35.61,1.45,1.45,0,0,0,.55.39,1.9,1.9,0,0,0,.73.13,1.86,1.86,0,0,0,.73-.13,1.45,1.45,0,0,0,.55-.39,1.66,1.66,0,0,0,.35-.61A2.62,2.62,0,0,0,21.38,12Z"/></svg>