<svg xmlns="http://www.w3.org/2000/svg" width="24" height="24" viewBox="0 0 24 24"><title>quality-low</title><path d="M7.12,13.88v1H3.68V9.05h1.2v4.83Z"/><path d="M13,12a3.06,3.06,0,0,1-.22,1.18,2.69,2.69,0,0,1-1.54,1.56,3.32,3.32,0,0,1-2.43,0,2.8,2.8,0,0,1-.94-.62,3,3,0,0,1-.61-.94A3.25,3.25,0,0,1,7,12a3.22,3.22,0,0,1,.21-1.18,3,3,0,0,1,.61-.94,2.8,2.8,0,0,1,.94-.62,3.32,3.32,0,0,1,2.43,0,2.69,2.69,0,0,1,1.54,1.56A3.1,3.1,0,0,1,13,12Zm-1.23,0a2.57,2.57,0,0,0-.12-.82,1.79,1.79,0,0,0-.35-.62,1.55,1.55,0,0,0-.55-.38A1.83,1.83,0,0,0,10,10a1.9,1.9,0,0,0-.73.14,1.64,1.64,0,0,0-.55.38,1.77,1.77,0,0,0-.34.62,2.57,2.57,0,0,0-.12.82,2.62,2.62,0,0,0,.12.82,1.64,1.64,0,0,0,.34.61,1.53,1.53,0,0,0,.55.39,1.9,1.9,0,0,0,.73.13,1.83,1.83,0,0,0,.73-.13,1.45,1.45,0,0,0,.55-.39,1.66,1.66,0,0,0,.35-.61A2.62,2.62,0,0,0,11.74,12Z"/><path d="M21.2,9.05l-1.8,5.8H18.32l-1.19-3.79-.06-.18a1.94,1.94,0,0,0-.05-.2,1.17,1.17,0,0,1-.05.2l-.06.18-1.2,3.79H14.63l-1.8-5.8h1a.44.44,0,0,1,.26.07.33.33,0,0,1,.14.19l.9,3.27q0,.13.06.3a3.2,3.2,0,0,1,.07.33,2.66,2.66,0,0,1,.08-.33,1.32,1.32,0,0,1,.09-.3l1-3.27a.42.42,0,0,1,.4-.26h.35a.44.44,0,0,1,.26.07.52.52,0,0,1,.14.19l1,3.27a1.31,1.31,0,0,1,.09.28,3,3,0,0,1,.08.32l.06-.32.06-.28.9-3.27A.34.34,0,0,1,20,9.13a.45.45,0,0,1,.26-.08Z"/></svg>