<svg xmlns="http://www.w3.org/2000/svg" width="24" height="24" viewBox="0 0 24 24"><title>quality-720p</title><path d="M7.85,9.05v.47a1.06,1.06,0,0,1,0,.34l-.09.21L5.6,14.48a.67.67,0,0,1-.21.26.56.56,0,0,1-.37.11h-.8l2.16-4.31a3.18,3.18,0,0,1,.17-.27A1.88,1.88,0,0,1,6.73,10H4.06A.26.26,0,0,1,3.88,10a.24.24,0,0,1-.07-.18V9.05Z"/><path d="M11.54,13.84a.37.37,0,0,1,.28.1.35.35,0,0,1,.1.26v.65h-4v-.36a.6.6,0,0,1,0-.22A.65.65,0,0,1,8.09,14l1.72-1.72q.22-.23.39-.42a4.21,4.21,0,0,0,.28-.4,2.2,2.2,0,0,0,.17-.39,1.93,1.93,0,0,0,0-.42.77.77,0,0,0-.2-.59.73.73,0,0,0-.56-.2,1,1,0,0,0-.3,0,.92.92,0,0,0-.24.13.66.66,0,0,0-.18.19.7.7,0,0,0-.11.23.48.48,0,0,1-.19.27.64.64,0,0,1-.35,0L8,10.68a2.08,2.08,0,0,1,.24-.74,1.62,1.62,0,0,1,.44-.53,1.73,1.73,0,0,1,.6-.32A2.48,2.48,0,0,1,10,9a2.18,2.18,0,0,1,.75.13,1.59,1.59,0,0,1,.58.34,1.5,1.5,0,0,1,.37.52,1.68,1.68,0,0,1,.13.68,1.83,1.83,0,0,1-.09.59,1.92,1.92,0,0,1-.25.52,3.34,3.34,0,0,1-.36.48c-.14.16-.29.31-.44.47L9.45,14a3,3,0,0,1,.41-.09,1.67,1.67,0,0,1,.37,0Z"/><path d="M16.4,12a4.68,4.68,0,0,1-.16,1.32,2.56,2.56,0,0,1-.46.92,1.71,1.71,0,0,1-.68.55,2,2,0,0,1-.85.18,2.06,2.06,0,0,1-.85-.18,1.75,1.75,0,0,1-.67-.55,2.73,2.73,0,0,1-.45-.92,5.53,5.53,0,0,1,0-2.64,2.73,2.73,0,0,1,.45-.92,1.75,1.75,0,0,1,.67-.55A2.06,2.06,0,0,1,14.25,9a2,2,0,0,1,.85.18,1.71,1.71,0,0,1,.68.55,2.56,2.56,0,0,1,.46.92A4.68,4.68,0,0,1,16.4,12Zm-1.14,0a5.69,5.69,0,0,0-.08-1A2.39,2.39,0,0,0,15,10.3a.82.82,0,0,0-.32-.32.86.86,0,0,0-.38-.1.82.82,0,0,0-.37.1.8.8,0,0,0-.31.32,2.09,2.09,0,0,0-.22.63,4.82,4.82,0,0,0-.09,1,4.82,4.82,0,0,0,.09,1,1.91,1.91,0,0,0,.22.63.8.8,0,0,0,.31.32.71.71,0,0,0,.37.1.75.75,0,0,0,.38-.1A.82.82,0,0,0,15,13.6a2.15,2.15,0,0,0,.23-.63A5.69,5.69,0,0,0,15.26,12Z"/><path d="M17.76,11.27A2,2,0,0,1,18,11a1.57,1.57,0,0,1,.3-.2l.35-.13a1.61,1.61,0,0,1,.39,0,1.41,1.41,0,0,1,.62.14,1.31,1.31,0,0,1,.47.41,2,2,0,0,1,.32.66,3.52,3.52,0,0,1,.11.9,2.63,2.63,0,0,1-.13.86,1.93,1.93,0,0,1-.36.68,1.7,1.7,0,0,1-.55.45,1.6,1.6,0,0,1-.73.16,1.42,1.42,0,0,1-.57-.1,1.17,1.17,0,0,1-.42-.27v1.64h-1.1V10.73h.68a.25.25,0,0,1,.27.19Zm.06,2.49a1,1,0,0,0,.34.26,1.23,1.23,0,0,0,.39.07.86.86,0,0,0,.36-.08.65.65,0,0,0,.28-.24,1.2,1.2,0,0,0,.19-.41,2.64,2.64,0,0,0,.06-.6,3.13,3.13,0,0,0-.05-.58,1.17,1.17,0,0,0-.16-.39.6.6,0,0,0-.23-.22.81.81,0,0,0-.31-.06,1.09,1.09,0,0,0-.5.11,1.45,1.45,0,0,0-.37.34Z"/></svg>