<svg xmlns="http://www.w3.org/2000/svg" width="24" height="24" viewBox="0 0 24 24"><title>quality-high</title><path d="M7.91,9.05v5.8H6.7v-2.5H4.14v2.5H2.94V9.05h1.2v2.46H6.7V9.05Z"/><path d="M10,14.85H8.8V9.05H10Z"/><path d="M13.73,11.9h2v2.39a3,3,0,0,1-.94.48,3.74,3.74,0,0,1-1.07.15,3.57,3.57,0,0,1-1.29-.23,2.75,2.75,0,0,1-1.63-1.55A3.11,3.11,0,0,1,10.57,12a3.32,3.32,0,0,1,.21-1.2,2.69,2.69,0,0,1,.61-.93,2.79,2.79,0,0,1,1-.62A3.74,3.74,0,0,1,14.28,9a3,3,0,0,1,.57.16,3.19,3.19,0,0,1,.49.24,3.25,3.25,0,0,1,.4.31l-.35.54a.29.29,0,0,1-.21.15.38.38,0,0,1-.28-.06l-.28-.16a2.52,2.52,0,0,0-.29-.12L14,10a2.81,2.81,0,0,0-.43,0,1.9,1.9,0,0,0-.73.14,1.63,1.63,0,0,0-.91,1,2.55,2.55,0,0,0-.13.81,2.58,2.58,0,0,0,.14.86,1.8,1.8,0,0,0,.38.63,1.62,1.62,0,0,0,.6.4,2.11,2.11,0,0,0,.77.14,2,2,0,0,0,.51-.06,2.32,2.32,0,0,0,.44-.16v-1H14a.24.24,0,0,1-.18-.06.19.19,0,0,1-.07-.16Z"/><path d="M21.36,9.05v5.8H20.15v-2.5H17.59v2.5H16.38V9.05h1.21v2.46h2.56V9.05Z"/></svg>