<svg xmlns="http://www.w3.org/2000/svg" width="24" height="24" viewBox="0 0 24 24"><title>quality-4k</title><path d="M12.25,12.64v.62a.2.2,0,0,1-.06.15.21.21,0,0,1-.16.06h-.45v1.38h-1V13.47H8.22A.33.33,0,0,1,8,13.41a.27.27,0,0,1-.1-.17l-.12-.55L10.53,9h1.05v3.6Zm-1.63,0V10.91c0-.09,0-.19,0-.29l0-.32L9,12.64Z"/><path d="M13.68,8.89v3.38h.19a.35.35,0,0,0,.16,0,.3.3,0,0,0,.12-.11l.91-1.21a.52.52,0,0,1,.16-.14.36.36,0,0,1,.22,0h1l-1.18,1.5a1,1,0,0,1-.32.3.75.75,0,0,1,.16.15,1.4,1.4,0,0,1,.13.18l1.27,2h-1a.51.51,0,0,1-.22,0,.36.36,0,0,1-.15-.15l-.93-1.52A.33.33,0,0,0,14.1,13a.42.42,0,0,0-.18,0h-.24v1.86h-1.1v-6Z"/></svg>