<svg id="ab031bc1-0579-42b3-8307-9d6574d072a7" data-name="Ebene 1" xmlns="http://www.w3.org/2000/svg" width="25" height="25" viewBox="0 0 25 25"><title>delete</title><path d="M18.86,6.14A9,9,0,0,0,6.14,18.86,9,9,0,0,0,18.86,6.14ZM7.55,17.45a7,7,0,0,1,9.9-9.9,7,7,0,0,1-9.9,9.9ZM16,10.38,14.62,9,12.5,11.09,10.38,9,9,10.38l2.13,2.12L9,14.62,10.38,16l2.12-2.13L14.62,16,16,14.62,13.91,12.5Zm2.82-4.24A9,9,0,0,0,6.14,18.86,9,9,0,0,0,18.86,6.14ZM7.55,17.45a7,7,0,0,1,9.9-9.9,7,7,0,0,1-9.9,9.9ZM16,10.38,14.62,9,12.5,11.09,10.38,9,9,10.38l2.13,2.12L9,14.62,10.38,16l2.12-2.13L14.62,16,16,14.62,13.91,12.5Z"/></svg>