<svg xmlns="http://www.w3.org/2000/svg" width="24" height="24" viewBox="0 0 24 24"><title>settings-video</title><path d="M18.46,11.43c-.11-.07-.95-.57-1.28-.72l-.42-1c.13-.33.36-1.26.4-1.42A.44.44,0,0,0,17,7.87l-.65-.64A.42.42,0,0,0,16,7.11a13.43,13.43,0,0,0-1.42.4l-1-.42c-.15-.32-.64-1.14-.72-1.28a.45.45,0,0,0-.38-.21h-.92a.47.47,0,0,0-.38.21c-.06.1-.57,1-.72,1.28l-1,.41C9.11,7.38,8.18,7.14,8,7.1a.45.45,0,0,0-.41.12L7,7.87a.46.46,0,0,0-.12.42c0,.12.27,1.06.4,1.42l-.41,1c-.32.14-1.14.63-1.28.72a.43.43,0,0,0-.22.38v.91a.44.44,0,0,0,.21.38c.11.07,1,.57,1.28.73l.42,1c-.13.33-.36,1.25-.4,1.41h0a.44.44,0,0,0,.12.42l.64.65a.49.49,0,0,0,.42.12c.12,0,1.06-.27,1.42-.4l1,.41c.14.32.63,1.14.72,1.28h0a.45.45,0,0,0,.38.21h.92a.45.45,0,0,0,.37-.2c.07-.11.58-.95.73-1.29l1-.41c.33.12,1.26.36,1.42.4h0a.45.45,0,0,0,.41-.12l.65-.65a.45.45,0,0,0,.12-.41c0-.12-.27-1.07-.4-1.42l.41-1c.32-.14,1.14-.63,1.28-.72h0a.44.44,0,0,0,.22-.38v-.92a.44.44,0,0,0-.21-.38ZM12,15.16a2.93,2.93,0,0,1-2-.85,2.87,2.87,0,0,1-.85-2.05A2.89,2.89,0,0,1,12,9.38a2.9,2.9,0,0,1,2.89,2.89A2.9,2.9,0,0,1,12,15.16Z" style="fill-rule:evenodd"/></svg>