<svg xmlns="http://www.w3.org/2000/svg" width="24" height="24" viewBox="0 0 24 24"><title>settings</title><path d="M20.5,13.5H18.32a6.37,6.37,0,0,1-.81,1.93L19.05,17,17,19.07l-1.54-1.54a6.43,6.43,0,0,1-1.91.79V20.5h-3V18.32a6.43,6.43,0,0,1-1.91-.79L7.05,19.07,4.93,17l1.54-1.54a6.43,6.43,0,0,1-.79-1.91H3.5v-3H5.67a6.51,6.51,0,0,1,.8-1.94L4.93,7.05,7,5,8.57,6.49a6.48,6.48,0,0,1,1.93-.81V3.5h3V5.68a6.43,6.43,0,0,1,1.91.79L17,4.93l2.12,2.12L17.53,8.59a6.51,6.51,0,0,1,.8,1.94H20.5ZM12,15a3,3,0,1,0-3-3A3,3,0,0,0,12,15Z"/></svg>