<svg id="e95e5169-c913-451a-8962-03e669dc2972" data-name="Ebene 1" xmlns="http://www.w3.org/2000/svg" width="25" height="25" viewBox="0 0 25 25"><title>window-width-2</title><polygon points="18.9 17.57 6.1 17.57 6.1 15.5 4.5 15.5 4.5 21 6.1 21 6.1 19.07 18.9 19.07 18.9 21 20.5 21 20.5 15.5 18.9 15.5 18.9 17.57"/><path d="M19.5,4H5.5a.94.94,0,0,0-1,1v7a1,1,0,0,0,1,1h14a1,1,0,0,0,1-1V5A.94.94,0,0,0,19.5,4ZM6,11.5v-.4L7.8,9.8l1.3.8a.63.63,0,0,0,.9-.1l1.5-1.4,2.4,2.4Zm13,0H16.1l-4-4a.78.78,0,0,0-1.1,0L9.4,9,8.2,8.2a.75.75,0,0,0-.9,0L6,9.2V5.5H19Z"/></svg>