<svg id="a3397f79-cb6a-42ad-b9c3-11e276fbfedb" data-name="Ebene 1" xmlns="http://www.w3.org/2000/svg" width="25" height="25" viewBox="0 0 25 25"><title>window-width</title><polygon points="16.5 16.13 17.7 17.32 7.3 17.32 8.5 16.13 7.5 15.13 4.5 18.13 7.5 21.13 8.5 20.13 7.3 18.93 17.7 18.93 16.5 20.13 17.5 21.13 20.5 18.13 17.5 15.13 16.5 16.13"/><path d="M19.5,3.88H5.5a.94.94,0,0,0-1,1v7a1,1,0,0,0,1,1h14a1,1,0,0,0,1-1v-7A.94.94,0,0,0,19.5,3.88ZM6,11.38V11L7.8,9.67l1.3.81a.65.65,0,0,0,.9-.1L11.5,9l2.4,2.4Zm13,0H16.1l-4-4a.78.78,0,0,0-1.1,0L9.4,8.88l-1.2-.8a.75.75,0,0,0-.9,0L6,9.08V5.38H19Z"/></svg>